# xmcd
#
# Track frame offsets:
#	150
#	12780
#	25215
#	36295
#	48740
#	59290
#	70350
#	83310
#	96455
#	107775
#	118925
#	128785
#	145175
#	155125
#
# Disc length: 2213 seconds
#
# Revision: 1
# Processed by: cddbd v1.5.1PL0 Copyright (c) Steve Scherf et al.
# Submitted via: audiograbber 1.82.02
#
DISCID=c408a30e
DTITLE=Rick and Thel Carey - Remembering With
DYEAR=1900
DGENRE=Country
TTITLE0=Remembering
TTITLE1=The Blackboard Of My Heart
TTITLE2=Nobody's Lonesome For Me
TTITLE3=Theres A Goldmine In The Sky
TTITLE4=In The Jailhouse Now
TTITLE5=Honest Women
TTITLE6=Don't Take My Memories
TTITLE7=Little Green Valley
TTITLE8=The Good Old Droving Days
TTITLE9=I'm Sorry, Thats All I Could Say
TTITLE10=Your Kind Of Love
TTITLE11=Pay Me No Mind
TTITLE12=I'll Go Steppin' Too
TTITLE13=I'll Take The Dog
EXTD=
EXTT0=
EXTT1=
EXTT2=
EXTT3=
EXTT4=
EXTT5=
EXTT6=
EXTT7=
EXTT8=
EXTT9=
EXTT10=
EXTT11=
EXTT12=
EXTT13=
PLAYORDER=
